<?xml version="1.0" encoding="UTF-8" standalone="no"?>
<!DOCTYPE svg PUBLIC "-//W3C//DTD SVG 1.1//EN" "http://www.w3.org/Graphics/SVG/1.1/DTD/svg11.dtd">
<!-- Created with Vectornator (http://vectornator.io/) -->
<svg height="100%" stroke-miterlimit="10" style="fill-rule:nonzero;clip-rule:evenodd;stroke-linecap:round;stroke-linejoin:round;" version="1.1" viewBox="0 0 16 16" width="100%" xml:space="preserve" xmlns="http://www.w3.org/2000/svg" xmlns:vectornator="http://vectornator.io" xmlns:xlink="http://www.w3.org/1999/xlink">
<defs/>
<g id="Untitled" vectornator:layerName="Untitled">
<path d="M4 0L12 0C14.2091 0 16 1.79086 16 4L16 12C16 14.2091 14.2091 16 12 16L4 16C1.79086 16 2.70542e-16 14.2091 0 12L0 4C0 1.79086 1.79086 4.05812e-16 4 0Z" fill="#3b5936" fill-rule="nonzero" opacity="1" stroke="none" vectornator:layerName="rect"/>
<path d="M2.76758 5.41797C2.76107 5.78255 2.75456 6.13574 2.74805 6.47754C2.74479 6.62402 2.74154 6.77376 2.73828 6.92676C2.73828 7.07975 2.73665 7.23112 2.7334 7.38086C2.7334 7.52734 2.73177 7.66895 2.72852 7.80566C2.72852 7.93913 2.72852 8.05794 2.72852 8.16211C2.72852 8.38021 2.73014 8.64388 2.7334 8.95312C2.73665 9.26237 2.73991 9.57975 2.74316 9.90527C2.74967 10.2308 2.75781 10.5433 2.76758 10.8428C2.77734 11.1423 2.78874 11.3913 2.80176 11.5898C2.84733 11.5964 2.90755 11.6045 2.98242 11.6143C3.06055 11.6208 3.14193 11.6273 3.22656 11.6338C3.3112 11.637 3.39421 11.6403 3.47559 11.6436C3.55697 11.6468 3.62533 11.6484 3.68066 11.6484C3.90853 11.6484 4.14128 11.6338 4.37891 11.6045C4.61979 11.5719 4.85091 11.5133 5.07227 11.4287C5.29688 11.3441 5.50684 11.2285 5.70215 11.082C5.90072 10.9323 6.07324 10.7402 6.21973 10.5059C6.36947 10.2715 6.48665 9.98991 6.57129 9.66113C6.65592 9.3291 6.69824 8.93848 6.69824 8.48926C6.69824 7.99121 6.63802 7.5485 6.51758 7.16113C6.39714 6.77051 6.21973 6.44173 5.98535 6.1748C5.75423 5.90788 5.46615 5.70605 5.12109 5.56934C4.7793 5.42936 4.38542 5.35938 3.93945 5.35938C3.85156 5.35938 3.75228 5.36263 3.6416 5.36914C3.53092 5.3724 3.42025 5.37728 3.30957 5.38379C3.20215 5.38704 3.09961 5.39355 3.00195 5.40332C2.90755 5.40983 2.82943 5.41471 2.76758 5.41797ZM1.69824 4.97852C1.77311 4.98177 1.8431 4.98503 1.9082 4.98828C1.96354 4.99154 2.02051 4.99479 2.0791 4.99805C2.1377 4.99805 2.1849 4.99805 2.2207 4.99805C2.28255 4.99805 2.38509 4.99479 2.52832 4.98828C2.6748 4.98177 2.84082 4.97526 3.02637 4.96875C3.21191 4.96224 3.40397 4.95573 3.60254 4.94922C3.80436 4.94271 3.99316 4.93945 4.16895 4.93945C4.64095 4.93945 5.09017 4.99805 5.5166 5.11523C5.94303 5.23242 6.31738 5.42448 6.63965 5.69141C6.96191 5.95833 7.21745 6.30827 7.40625 6.74121C7.59505 7.17415 7.68945 7.70638 7.68945 8.33789C7.68945 8.79036 7.639 9.19727 7.53809 9.55859C7.44043 9.91992 7.30208 10.2389 7.12305 10.5156C6.94401 10.7923 6.72917 11.0299 6.47852 11.2285C6.23112 11.4238 5.95605 11.585 5.65332 11.7119C5.35384 11.8389 5.0332 11.9316 4.69141 11.9902C4.34961 12.0488 3.99642 12.0781 3.63184 12.0781C3.50163 12.0781 3.34375 12.0732 3.1582 12.0635C2.97591 12.057 2.79199 12.0488 2.60645 12.0391C2.4209 12.0293 2.24512 12.0195 2.0791 12.0098C1.91634 12.0033 1.78939 12 1.69824 12L1.69824 11.9805C1.71777 11.9121 1.73568 11.8275 1.75195 11.7266C1.77148 11.6257 1.78776 11.5003 1.80078 11.3506C1.8138 11.2008 1.82357 11.0234 1.83008 10.8184C1.83659 10.61 1.83984 10.3675 1.83984 10.0908L1.83984 6.91211C1.83984 6.63542 1.83659 6.3929 1.83008 6.18457C1.82357 5.97298 1.8138 5.79232 1.80078 5.64258C1.78776 5.48958 1.77148 5.361 1.75195 5.25684C1.73568 5.15267 1.71777 5.06641 1.69824 4.99805L1.69824 4.97852ZM9.86719 10.0908C9.86719 10.3675 9.87044 10.61 9.87695 10.8184C9.88672 11.0234 9.89648 11.2008 9.90625 11.3506C9.91927 11.5003 9.93392 11.6257 9.9502 11.7266C9.96973 11.8275 9.98926 11.9121 10.0088 11.9805L10.0088 12L8.83691 12L8.83691 11.9805C8.85645 11.9121 8.87435 11.8275 8.89062 11.7266C8.91016 11.6257 8.9248 11.5003 8.93457 11.3506C8.94759 11.2008 8.95736 11.0234 8.96387 10.8184C8.97363 10.6133 8.97852 10.3708 8.97852 10.0908L8.97852 6.91211C8.97852 6.63542 8.97363 6.39453 8.96387 6.18945C8.95736 5.98112 8.94759 5.80208 8.93457 5.65234C8.9248 5.5026 8.91016 5.37728 8.89062 5.27637C8.87435 5.1722 8.85645 5.08594 8.83691 5.01758L8.83691 4.99805L9.04199 5.01758C9.10384 5.02409 9.1722 5.02897 9.24707 5.03223C9.3252 5.03223 9.40495 5.03223 9.48633 5.03223C9.61328 5.03223 9.78418 5.01758 9.99902 4.98828C10.2171 4.95573 10.4938 4.93945 10.8291 4.93945C11.1416 4.93945 11.4297 4.98177 11.6934 5.06641C11.9603 5.15104 12.1914 5.27474 12.3867 5.4375C12.582 5.60026 12.7334 5.80046 12.8408 6.03809C12.9515 6.27246 13.0068 6.53939 13.0068 6.83887C13.0068 7.07324 12.9759 7.29134 12.9141 7.49316C12.8555 7.69173 12.7708 7.8724 12.6602 8.03516C12.5527 8.19792 12.4225 8.34277 12.2695 8.46973C12.1165 8.59342 11.9456 8.69759 11.7568 8.78223L13.4707 11.1895C13.5553 11.3099 13.6335 11.4141 13.7051 11.502C13.7799 11.5898 13.8499 11.6663 13.915 11.7314C13.9834 11.7933 14.0485 11.8454 14.1104 11.8877C14.1722 11.9268 14.2357 11.9577 14.3008 11.9805L14.3008 12L12.8896 12C12.8799 11.9382 12.8473 11.8568 12.792 11.7559C12.7399 11.6517 12.6781 11.5492 12.6064 11.4482L10.8779 9.01172C10.8031 9.01823 10.7282 9.02474 10.6533 9.03125C10.5785 9.03451 10.502 9.03613 10.4238 9.03613C10.3327 9.03613 10.2399 9.03288 10.1455 9.02637C10.0544 9.01986 9.96159 9.00846 9.86719 8.99219L9.86719 10.0908ZM9.86719 8.61133C9.95508 8.63086 10.0446 8.64551 10.1357 8.65527C10.2269 8.66178 10.3148 8.66504 10.3994 8.66504C10.6436 8.66504 10.8665 8.62923 11.0684 8.55762C11.2702 8.48275 11.4411 8.37044 11.5811 8.2207C11.7243 8.07096 11.835 7.88542 11.9131 7.66406C11.9912 7.43945 12.0303 7.17741 12.0303 6.87793C12.0303 6.63379 12.0026 6.41243 11.9473 6.21387C11.8919 6.0153 11.8089 5.84766 11.6982 5.71094C11.5908 5.57096 11.4541 5.46354 11.2881 5.38867C11.1221 5.31055 10.9284 5.27148 10.707 5.27148C10.4824 5.27148 10.3034 5.28288 10.1699 5.30566C10.0365 5.32845 9.93555 5.35286 9.86719 5.37891L9.86719 8.61133Z" fill="#f2eddc" fill-rule="nonzero" opacity="1" stroke="none" vectornator:layerName="path"/>
</g>
</svg>
